<svg width="40" height="41" viewBox="0 0 40 41" fill="none" xmlns="http://www.w3.org/2000/svg">
<path d="M39.0244 20.5C39.0244 9.45312 30.2896 0.5 19.5122 0.5C8.73476 0.5 0 9.45312 0 20.5C0 29.875 6.30335 37.75 14.8018 39.9141V26.6094H10.7774V20.5H14.8018V17.8672C14.8018 11.0625 17.8049 7.90625 24.3293 7.90625C25.564 7.90625 27.6982 8.15625 28.5747 8.40625V13.9375C28.1174 13.8906 27.3171 13.8594 26.3186 13.8594C23.1174 13.8594 21.8826 15.1016 21.8826 18.3281V20.5H28.2546L27.157 26.6094H21.875V40.3516C31.5396 39.1562 39.0244 30.7266 39.0244 20.5Z" fill="white"/>
</svg>
