<svg width="41" height="41" viewBox="0 0 41 41" fill="none" xmlns="http://www.w3.org/2000/svg">
<g clip-path="url(#clip0_3220_19)">
<path d="M20.9978 10.5983C15.3224 10.5983 10.7446 15.1771 10.7446 20.8538C10.7446 26.5304 15.3224 31.1093 20.9978 31.1093C26.6732 31.1093 31.251 26.5304 31.251 20.8538C31.251 15.1771 26.6732 10.5983 20.9978 10.5983ZM20.9978 27.5212C17.3302 27.5212 14.3319 24.5311 14.3319 20.8538C14.3319 17.1764 17.3213 14.1863 20.9978 14.1863C24.6743 14.1863 27.6637 17.1764 27.6637 20.8538C27.6637 24.5311 24.6654 27.5212 20.9978 27.5212ZM34.0619 10.1788C34.0619 11.5087 32.9911 12.5708 31.6704 12.5708C30.3408 12.5708 29.2789 11.4997 29.2789 10.1788C29.2789 8.85778 30.3497 7.78671 31.6704 7.78671C32.9911 7.78671 34.0619 8.85778 34.0619 10.1788ZM40.8528 12.6065C40.7011 9.40224 39.9693 6.5639 37.6224 4.2254C35.2845 1.8869 32.4467 1.155 29.2432 0.994338C25.9414 0.8069 16.0452 0.8069 12.7435 0.994338C9.54881 1.14607 6.71111 1.87797 4.3642 4.21647C2.0173 6.55498 1.29449 9.39331 1.13386 12.5976C0.946468 15.9001 0.946468 25.7985 1.13386 29.101C1.28556 32.3053 2.0173 35.1436 4.3642 37.4821C6.71111 39.8206 9.53989 40.5525 12.7435 40.7132C16.0452 40.9006 25.9414 40.9006 29.2432 40.7132C32.4467 40.5614 35.2845 39.8296 37.6224 37.4821C39.9604 35.1436 40.6921 32.3053 40.8528 29.101C41.0402 25.7985 41.0402 15.909 40.8528 12.6065ZM36.5873 32.6445C35.8913 34.3939 34.5438 35.7416 32.7858 36.4468C30.1534 37.491 23.9069 37.2501 20.9978 37.2501C18.0887 37.2501 11.8332 37.4821 9.20971 36.4468C7.46069 35.7506 6.11323 34.4028 5.40826 32.6445C4.3642 30.0114 4.60514 23.7635 4.60514 20.8538C4.60514 17.944 4.37313 11.6872 5.40826 9.06306C6.1043 7.31365 7.45177 5.96589 9.20971 5.26077C11.8422 4.21647 18.0887 4.45746 20.9978 4.45746C23.9069 4.45746 30.1623 4.2254 32.7858 5.26077C34.5349 5.95696 35.8823 7.30472 36.5873 9.06306C37.6314 11.6961 37.3904 17.944 37.3904 20.8538C37.3904 23.7635 37.6314 30.0203 36.5873 32.6445Z" fill="white"/>
</g>
<defs>
<clipPath id="clip0_3220_19">
<rect width="41" height="41" fill="white"/>
</clipPath>
</defs>
</svg>
