<svg width="30" height="24" viewBox="0 0 30 24" fill="none" xmlns="http://www.w3.org/2000/svg">
<g clip-path="url(#clip0_3222_49)">
<path d="M9.22645 4.8125C9.80505 4.8125 10.36 4.58532 10.7691 4.18095C11.1782 3.77657 11.4081 3.22812 11.4081 2.65625C11.4081 2.08438 11.1782 1.53593 10.7691 1.13155C10.36 0.727176 9.80505 0.5 9.22645 0.5C8.64785 0.5 8.09294 0.727176 7.68381 1.13155C7.27468 1.53593 7.04483 2.08438 7.04483 2.65625C7.04483 3.22812 7.27468 3.77657 7.68381 4.18095C8.09294 4.58532 8.64785 4.8125 9.22645 4.8125ZM8.86285 22.0625V16.3125H9.59005V22.0625C9.59005 22.8576 10.24 23.5 11.0445 23.5C11.8489 23.5 12.4989 22.8576 12.4989 22.0625V9.125H15.0441H17.9529H18.6801C19.4846 9.125 20.1345 8.48262 20.1345 7.6875C20.1345 6.89238 19.4846 6.25 18.6801 6.25H17.9529V3.375H26.6794V12H17.9529V10.5625H15.0441V12.7188C15.0441 13.9092 16.0213 14.875 17.2257 14.875H27.4066C28.611 14.875 29.5882 13.9092 29.5882 12.7188V2.65625C29.5882 1.46582 28.611 0.5 27.4066 0.5H17.2257C16.0213 0.5 15.0441 1.46582 15.0441 2.65625V6.25H11.549H8.54924C7.01756 6.25 5.59951 7.04512 4.80867 8.34336L2.15892 12.7008C1.74532 13.3791 1.96803 14.2641 2.65433 14.6729C3.34063 15.0816 4.236 14.8615 4.6496 14.1832L5.95402 12.0404V22.0625C5.95402 22.8576 6.60396 23.5 7.40843 23.5C8.21291 23.5 8.86285 22.8576 8.86285 22.0625Z" fill="white"/>
</g>
<defs>
<clipPath id="clip0_3222_49">
<rect width="29.0882" height="23" fill="white" transform="translate(0.5 0.5)"/>
</clipPath>
</defs>
</svg>
