<svg width="25" height="26" viewBox="0 0 25 26" fill="none" xmlns="http://www.w3.org/2000/svg">
<path d="M15.8105 2.19924C13.9453 1.66701 11.9971 2.74611 11.4648 4.61135L11.1865 5.58791C11.0059 6.22267 10.6787 6.80861 10.2344 7.29689L7.72949 10.0508C7.29492 10.5293 7.3291 11.2715 7.80762 11.7061C8.28613 12.1406 9.02832 12.1065 9.46289 11.6279L11.9678 8.87404C12.6562 8.11721 13.1592 7.21389 13.4375 6.23244L13.7158 5.25588C13.8916 4.63576 14.541 4.27443 15.166 4.45021C15.791 4.626 16.1475 5.27541 15.9717 5.90041L15.6934 6.87697C15.415 7.84865 14.9756 8.76662 14.3945 9.58693C14.1406 9.94338 14.1113 10.4121 14.3115 10.8028C14.5117 11.1934 14.9121 11.4375 15.3516 11.4375H21.875C22.3047 11.4375 22.6562 11.7891 22.6562 12.2188C22.6562 12.5508 22.4463 12.8389 22.1484 12.9512C21.7871 13.0879 21.5137 13.3906 21.4209 13.7666C21.3281 14.1426 21.4258 14.5381 21.6797 14.8262C21.8018 14.9629 21.875 15.1436 21.875 15.3438C21.875 15.7246 21.6016 16.042 21.2402 16.1104C20.8398 16.1885 20.5029 16.4668 20.3613 16.8526C20.2197 17.2383 20.2832 17.668 20.5371 17.9903C20.6396 18.1221 20.7031 18.2881 20.7031 18.4737C20.7031 18.8008 20.498 19.0889 20.2051 19.2012C19.6436 19.4209 19.3408 20.0264 19.502 20.6074C19.5215 20.6709 19.5312 20.7442 19.5312 20.8174C19.5312 21.2471 19.1797 21.5987 18.75 21.5987H13.9893C13.374 21.5987 12.7686 21.418 12.2559 21.0762L9.24316 19.0694C8.70605 18.708 7.97852 18.8545 7.61719 19.3965C7.25586 19.9385 7.40234 20.6611 7.94434 21.0225L10.957 23.0293C11.8555 23.6299 12.9102 23.9473 13.9893 23.9473H18.75C20.4443 23.9473 21.8213 22.5996 21.875 20.9199C22.5879 20.3487 23.0469 19.4697 23.0469 18.4785C23.0469 18.2588 23.0225 18.0488 22.9834 17.8438C23.7354 17.2725 24.2188 16.3692 24.2188 15.3535C24.2188 15.0362 24.1699 14.7285 24.082 14.4404C24.6484 13.8643 25 13.083 25 12.2188C25 10.4951 23.6035 9.09377 21.875 9.09377H17.3682C17.5977 8.58596 17.793 8.05861 17.9443 7.5215L18.2227 6.54494C18.7549 4.67971 17.6758 2.73146 15.8105 2.19924ZM1.5625 9.87502C0.698242 9.87502 0 10.5733 0 11.4375V22.375C0 23.2393 0.698242 23.9375 1.5625 23.9375H4.6875C5.55176 23.9375 6.25 23.2393 6.25 22.375V11.4375C6.25 10.5733 5.55176 9.87502 4.6875 9.87502H1.5625Z" fill="white"/>
</svg>
