<svg width="40" height="31" viewBox="0 0 40 31" fill="none" xmlns="http://www.w3.org/2000/svg">
<g filter="url(#filter0_d_3222_46)">
<path d="M19.6813 0C20.0783 0 20.4703 0.0718608 20.8427 0.21045L34.5885 5.4101C35.054 5.58975 35.3628 6.05172 35.3628 6.57014C35.3628 7.08857 35.054 7.55053 34.5885 7.73018L31.7511 8.80296C32.5548 10.1273 33.0106 11.6928 33.0106 13.3405V14.7828C33.0106 16.2406 33.5398 17.7445 34.1034 18.9302C34.4219 19.5975 34.7845 20.2545 35.206 20.8602C35.3628 21.0809 35.4069 21.3684 35.3187 21.6301C35.2305 21.8919 35.0246 22.087 34.7698 22.1537L31.6335 22.975C31.4277 23.0314 31.2072 22.9904 31.0259 22.8723C30.8446 22.7542 30.7171 22.5592 30.6779 22.3385C30.2565 20.1416 30.4672 18.1705 30.7808 16.759C30.9377 16.0301 31.1484 15.2858 31.4424 14.6032V13.3405C31.4424 11.7903 30.9426 10.3274 30.0752 9.15713C29.443 8.36153 28.6247 7.71992 27.6642 7.32468L19.9705 4.15767C19.5686 3.99341 19.1129 4.19873 18.9561 4.61963C18.7992 5.04053 18.9953 5.51789 19.3971 5.68214L27.0908 8.84916C27.6985 9.10067 28.2326 9.48564 28.6688 9.95787L20.8476 12.9144C20.4752 13.053 20.0832 13.1249 19.6862 13.1249C19.2893 13.1249 18.8973 13.053 18.5248 12.9144L4.77416 7.73018C4.30862 7.55566 3.99989 7.08857 3.99989 6.57014C3.99989 6.05172 4.30862 5.58975 4.77416 5.4101L18.5199 0.21045C18.8924 0.0718608 19.2844 0 19.6813 0ZM29.0902 19.2998C29.0902 21.1117 24.8758 22.9955 19.6813 22.9955C14.4869 22.9955 10.2725 21.1117 10.2725 19.2998L11.0222 11.8365L17.9907 14.4748C18.5346 14.6802 19.108 14.7828 19.6813 14.7828C20.2547 14.7828 20.8329 14.6802 21.372 14.4748L28.3404 11.8365L29.0902 19.2998Z" fill="white"/>
</g>
<defs>
<filter id="filter0_d_3222_46" x="0" y="0" width="39.3635" height="31" filterUnits="userSpaceOnUse" color-interpolation-filters="sRGB">
<feFlood flood-opacity="0" result="BackgroundImageFix"/>
<feColorMatrix in="SourceAlpha" type="matrix" values="0 0 0 0 0 0 0 0 0 0 0 0 0 0 0 0 0 0 127 0" result="hardAlpha"/>
<feOffset dy="4"/>
<feGaussianBlur stdDeviation="2"/>
<feComposite in2="hardAlpha" operator="out"/>
<feColorMatrix type="matrix" values="0 0 0 0 0 0 0 0 0 0 0 0 0 0 0 0 0 0 0.25 0"/>
<feBlend mode="normal" in2="BackgroundImageFix" result="effect1_dropShadow_3222_46"/>
<feBlend mode="normal" in="SourceGraphic" in2="effect1_dropShadow_3222_46" result="shape"/>
</filter>
</defs>
</svg>
