<svg width="40" height="36" viewBox="0 0 40 36" fill="none" xmlns="http://www.w3.org/2000/svg">
<g filter="url(#filter0_d_3220_22)">
<path d="M38.1736 5.19531C37.7361 3.34375 36.4514 1.89062 34.8195 1.39844C31.8611 0.5 20 0.5 20 0.5C20 0.5 8.1389 0.5 5.18056 1.39844C3.54862 1.89062 2.2639 3.34375 1.8264 5.19531C1.03473 8.54688 1.03473 15.5312 1.03473 15.5312C1.03473 15.5312 1.03473 22.5156 1.8264 25.8672C2.2639 27.7188 3.54862 29.1094 5.18056 29.6016C8.1389 30.5 20 30.5 20 30.5C20 30.5 31.8611 30.5 34.8195 29.6016C36.4514 29.1094 37.7361 27.7109 38.1736 25.8672C38.9653 22.5156 38.9653 15.5312 38.9653 15.5312C38.9653 15.5312 38.9653 8.54688 38.1736 5.19531ZM16.125 21.875V9.1875L26.0347 15.5312L16.125 21.875Z" fill="white"/>
</g>
<defs>
<filter id="filter0_d_3220_22" x="-2.96527" y="0.5" width="45.9305" height="38" filterUnits="userSpaceOnUse" color-interpolation-filters="sRGB">
<feFlood flood-opacity="0" result="BackgroundImageFix"/>
<feColorMatrix in="SourceAlpha" type="matrix" values="0 0 0 0 0 0 0 0 0 0 0 0 0 0 0 0 0 0 127 0" result="hardAlpha"/>
<feOffset dy="4"/>
<feGaussianBlur stdDeviation="2"/>
<feComposite in2="hardAlpha" operator="out"/>
<feColorMatrix type="matrix" values="0 0 0 0 0 0 0 0 0 0 0 0 0 0 0 0 0 0 0.25 0"/>
<feBlend mode="normal" in2="BackgroundImageFix" result="effect1_dropShadow_3220_22"/>
<feBlend mode="normal" in="SourceGraphic" in2="effect1_dropShadow_3220_22" result="shape"/>
</filter>
</defs>
</svg>
